<?xml version="1.0" encoding="utf-8"?>
<!-- Generator: Adobe Illustrator 22.1.0, SVG Export Plug-In . SVG Version: 6.00 Build 0)  -->
<svg version="1.1" id="图层_1" xmlns="http://www.w3.org/2000/svg" xmlns:xlink="http://www.w3.org/1999/xlink" x="0px" y="0px"
	 viewBox="0 0 16 16" style="enable-background:new 0 0 16 16;" xml:space="preserve">
<path d="M2.2,6.4C2,6.4,1.9,6.5,1.8,6.6C1.7,6.6,1.7,6.8,1.7,6.9L2,8.9c0.1,0.4,0.4,0.7,0.8,0.7h1.9c0.4,0,0.9-0.4,1-0.8l0.7-2.1
	c0-0.1,0-0.2,0-0.3C6.3,6.4,6.2,6.4,6.1,6.4H2.2 M4.8,10.9H2.8c-1,0-2-0.8-2.1-1.8L0.4,7.1C0.4,6.6,0.5,6.1,0.9,5.7s0.8-0.6,1.3-0.6
	h3.9c0.5,0,1,0.2,1.3,0.6C7.5,5.8,7.5,5.9,7.6,6C7.8,6,8.1,6,8.4,6c0.1-0.1,0.1-0.2,0.2-0.3c0.3-0.4,0.8-0.6,1.3-0.6h3.9
	c0.5,0,1,0.2,1.3,0.6c0.3,0.4,0.5,0.9,0.4,1.4l-0.3,2c-0.1,1-1,1.8-2.1,1.8h-1.9c-1,0-2-0.8-2.2-1.7L8.4,7.4c-0.2-0.2-0.6-0.2-0.8,0
	L7,9.2C6.7,10.1,5.8,10.9,4.8,10.9 M9.9,6.4c-0.1,0-0.3,0-0.3,0.1c-0.1,0.1-0.1,0.2,0,0.3l0.6,2c0.1,0.4,0.6,0.8,1,0.8h1.9
	c0.4,0,0.8-0.3,0.8-0.7l0.3-2c0-0.1,0-0.3-0.1-0.4c-0.1-0.1-0.2-0.2-0.4-0.2H9.9z"/>
</svg>
